<svg id="svg" xmlns="http://www.w3.org/2000/svg" xmlns:xlink="http://www.w3.org/1999/xlink" width="400" height="457.14285714285717" viewBox="0, 0, 400,457.14285714285717"><g id="svgg"><path id="path0" d="M211.060 19.591 C 210.791 20.539,210.322 36.213,210.016 54.422 C 209.710 72.630,209.230 89.615,208.949 92.166 L 208.439 96.804 216.918 97.406 C 221.581 97.738,227.496 98.243,230.061 98.530 L 234.725 99.051 235.386 86.704 C 235.750 79.913,236.304 71.294,236.618 67.550 L 237.188 60.744 244.376 80.621 L 251.564 100.499 254.807 100.992 C 262.825 102.209,280.370 103.605,280.907 103.068 C 281.461 102.515,285.746 29.792,285.259 29.215 C 285.091 29.017,259.938 24.545,258.730 24.499 C 258.605 24.494,258.455 28.265,258.397 32.880 C 258.338 37.494,258.032 45.231,257.717 50.072 L 257.143 58.874 248.607 39.641 C 243.912 29.063,239.811 20.103,239.493 19.730 C 237.962 17.933,211.565 17.804,211.060 19.591 M287.084 23.356 C 287.350 25.227,288.172 33.051,288.911 40.743 C 289.650 48.436,290.427 54.902,290.638 55.112 C 291.065 55.540,305.552 58.897,307.126 58.934 C 308.069 58.956,313.834 32.760,313.833 28.457 C 313.832 26.825,292.219 19.955,287.085 19.955 C 286.818 19.955,286.818 21.485,287.084 23.356 M161.905 24.258 C 136.138 33.508,126.890 71.520,146.498 87.587 C 167.849 105.083,202.026 91.609,205.786 64.214 C 209.574 36.621,186.355 15.480,161.905 24.258 M102.041 28.234 C 94.284 29.168,74.628 36.338,73.178 38.763 C 71.500 41.569,71.533 113.379,73.212 113.379 C 79.556 113.379,99.287 106.374,108.348 100.905 C 147.367 77.355,142.679 23.343,102.041 28.234 M314.035 50.567 L 314.286 63.946 322.209 65.698 L 330.132 67.451 330.372 93.757 L 330.612 120.063 341.950 122.981 C 348.186 124.586,353.428 125.765,353.600 125.601 C 353.772 125.436,354.824 114.254,355.938 100.752 C 357.052 87.249,358.178 75.987,358.440 75.725 C 358.702 75.463,362.244 76.139,366.310 77.227 C 370.377 78.315,373.887 79.023,374.111 78.799 C 374.594 78.316,374.944 55.330,374.474 54.980 C 373.942 54.585,315.254 37.169,314.488 37.179 C 314.101 37.184,313.897 43.209,314.035 50.567 M30.839 48.899 L 16.780 54.121 16.543 91.913 C 16.400 114.773,16.640 129.705,17.150 129.705 C 21.138 129.705,40.817 121.141,40.821 119.404 C 40.823 118.335,42.045 102.154,43.537 83.447 C 46.449 46.935,46.625 43.499,45.578 43.608 C 45.204 43.647,38.571 46.028,30.839 48.899 M177.909 50.734 C 184.787 58.177,179.602 71.655,169.861 71.655 C 159.895 71.655,156.954 53.717,166.182 49.216 C 171.511 46.617,174.458 46.998,177.909 50.734 M106.239 53.121 C 115.581 57.952,111.703 77.774,100.099 84.499 L 97.501 86.005 98.571 69.533 C 99.159 60.474,99.670 52.755,99.707 52.381 C 99.820 51.227,103.350 51.627,106.239 53.121 M44.142 133.938 C 43.810 134.271,43.537 150.189,43.537 169.312 L 43.537 204.082 49.887 204.082 C 53.515 204.082,56.236 204.470,56.236 204.989 C 56.236 205.488,54.093 205.902,51.474 205.909 L 46.712 205.923 50.340 209.050 C 55.657 213.633,53.489 212.928,47.167 208.018 L 41.723 203.791 41.723 173.097 L 41.723 142.404 27.211 142.404 C 19.229 142.404,12.698 142.733,12.698 143.135 C 12.698 143.537,16.362 150.986,20.839 159.688 C 30.680 178.815,30.678 174.985,20.862 194.911 C 16.372 204.026,12.698 211.858,12.698 212.317 C 12.698 212.805,22.883 213.152,37.188 213.152 C 50.658 213.152,61.678 212.940,61.678 212.680 C 61.678 212.421,60.658 210.592,59.410 208.617 C 58.163 206.641,57.143 204.751,57.143 204.416 C 57.143 204.082,88.265 203.951,126.304 204.126 C 164.342 204.301,229.036 204.363,270.068 204.263 L 344.671 204.082 344.671 168.707 L 344.671 133.333 194.709 133.333 C 112.230 133.333,44.475 133.605,44.142 133.938 M346.485 173.190 L 346.485 203.976 341.112 208.110 C 334.827 212.946,332.598 213.592,337.868 209.050 L 341.497 205.923 335.846 205.909 L 330.196 205.896 328.345 209.524 L 326.494 213.152 351.002 213.152 C 365.064 213.152,375.510 212.801,375.510 212.329 C 375.510 211.877,371.741 203.653,367.135 194.055 L 358.760 176.604 367.185 160.184 C 371.820 151.153,375.589 143.458,375.561 143.084 C 375.533 142.710,368.980 142.404,360.998 142.404 L 346.485 142.404 346.485 173.190 M116.522 146.414 C 119.696 147.740,122.449 151.755,122.449 155.057 C 122.449 157.884,119.951 157.276,119.295 154.289 C 117.333 145.357,105.266 146.307,105.229 155.396 C 105.217 158.547,105.846 159.462,112.100 165.374 C 126.973 179.434,127.380 192.290,112.953 192.290 C 106.249 192.290,98.255 183.164,102.568 180.434 C 104.645 179.120,104.953 179.402,105.556 183.170 C 107.007 192.243,119.737 191.958,119.722 182.853 C 119.714 178.227,118.321 176.140,109.606 167.709 C 104.109 162.389,102.523 160.257,102.004 157.490 C 100.395 148.914,108.219 142.945,116.522 146.414 M180.001 146.408 C 187.132 149.388,186.591 156.634,178.619 164.930 L 174.991 168.706 179.717 176.073 C 184.995 184.300,185.855 184.312,187.905 176.190 C 188.622 173.349,189.331 172.336,190.601 172.336 C 192.733 172.336,192.229 175.113,188.886 181.799 C 186.557 186.457,187.270 188.662,191.103 188.662 C 191.756 188.662,192.290 189.478,192.290 190.476 C 192.290 192.904,190.224 192.767,187.164 190.135 C 184.686 188.003,184.632 187.998,182.352 189.681 C 169.671 199.042,158.636 185.451,168.463 172.576 L 171.688 168.352 169.370 164.221 C 162.718 152.362,169.011 141.817,180.001 146.408 M226.854 147.210 C 228.425 148.191,231.293 153.931,231.293 156.094 C 231.293 158.330,228.266 156.196,227.328 153.299 C 225.948 149.036,222.450 147.331,218.059 148.780 C 210.768 151.186,212.049 157.272,221.877 166.921 C 232.609 177.456,234.668 184.753,228.400 190.028 C 221.685 195.678,210.431 190.642,210.431 181.986 C 210.431 179.000,213.095 179.696,213.984 182.914 C 215.802 189.498,222.482 192.030,226.757 187.755 C 230.894 183.618,228.810 178.277,219.501 169.161 C 212.187 161.998,210.431 159.236,210.431 154.895 C 210.431 147.267,219.872 142.849,226.854 147.210 M77.098 147.186 C 83.126 150.184,84.049 160.989,78.731 166.307 L 75.984 169.054 79.262 180.118 C 83.082 193.013,82.982 192.291,80.952 192.289 C 79.786 192.288,78.928 190.784,77.717 186.620 C 76.811 183.503,75.240 178.197,74.227 174.830 L 72.386 168.707 68.392 168.707 L 64.399 168.707 64.399 180.499 C 64.399 191.686,64.306 192.290,62.585 192.290 C 60.818 192.290,60.771 191.686,60.771 169.161 L 60.771 146.032 67.800 146.045 C 71.667 146.052,75.850 146.566,77.098 147.186 M94.331 169.161 C 94.331 191.686,94.284 192.290,92.517 192.290 C 90.750 192.290,90.703 191.686,90.703 169.161 C 90.703 146.636,90.750 146.032,92.517 146.032 C 94.284 146.032,94.331 146.636,94.331 169.161 M146.032 147.392 C 146.032 148.472,144.722 148.753,139.683 148.753 L 133.333 148.753 133.333 157.823 L 133.333 166.893 138.776 166.893 C 143.008 166.893,144.218 167.196,144.218 168.254 C 144.218 169.312,143.008 169.615,138.776 169.615 L 133.333 169.615 133.333 179.592 L 133.333 189.569 139.683 189.569 C 144.722 189.569,146.032 189.850,146.032 190.930 C 146.032 192.038,144.520 192.290,137.868 192.290 L 129.705 192.290 129.705 169.161 L 129.705 146.032 137.868 146.032 C 144.520 146.032,146.032 146.284,146.032 147.392 M242.177 156.463 L 242.177 166.893 249.887 166.893 L 257.596 166.893 257.596 156.463 C 257.596 146.636,257.702 146.032,259.410 146.032 C 261.177 146.032,261.224 146.636,261.224 169.161 C 261.224 191.686,261.177 192.290,259.410 192.290 C 257.693 192.290,257.596 191.686,257.596 180.952 L 257.596 169.615 249.887 169.615 L 242.177 169.615 242.177 180.952 C 242.177 191.686,242.080 192.290,240.363 192.290 C 238.596 192.290,238.549 191.686,238.549 169.161 C 238.549 146.636,238.596 146.032,240.363 146.032 C 242.072 146.032,242.177 146.636,242.177 156.463 M273.923 169.161 C 273.923 191.686,273.875 192.290,272.109 192.290 C 270.342 192.290,270.295 191.686,270.295 169.161 C 270.295 146.636,270.342 146.032,272.109 146.032 C 273.875 146.032,273.923 146.636,273.923 169.161 M293.268 164.567 L 300.680 182.649 300.926 164.340 C 301.161 146.783,301.245 146.032,302.967 146.032 C 304.709 146.032,304.762 146.717,304.762 169.161 C 304.762 196.827,304.394 197.495,297.888 181.633 C 295.484 175.771,291.984 167.302,290.111 162.812 L 286.706 154.649 286.664 173.469 C 286.623 191.671,286.562 192.290,284.807 192.290 C 283.040 192.290,282.993 191.686,282.993 169.094 C 282.993 139.818,283.104 139.769,293.268 164.567 M329.252 147.351 C 329.252 148.348,327.758 148.735,323.129 148.938 L 317.007 149.206 317.007 157.823 L 317.007 166.440 322.222 166.712 C 325.959 166.907,327.438 167.344,327.438 168.254 C 327.438 169.164,325.959 169.601,322.222 169.796 L 317.007 170.068 317.007 179.592 L 317.007 189.116 323.129 189.384 C 333.031 189.818,331.681 192.290,321.542 192.290 L 313.832 192.290 313.832 169.161 L 313.832 146.032 321.542 146.032 C 327.683 146.032,329.252 146.300,329.252 147.351 M171.814 150.099 C 169.006 152.907,169.131 157.918,172.154 163.812 L 173.819 167.056 176.766 163.699 C 180.122 159.877,181.406 157.011,181.406 153.340 C 181.406 148.319,175.567 146.346,171.814 150.099 M64.399 157.823 L 64.399 166.893 67.892 166.893 C 76.079 166.893,79.637 163.266,78.652 155.922 C 77.896 150.285,75.983 148.753,69.701 148.753 L 64.399 148.753 64.399 157.823 M170.439 174.266 C 163.826 183.552,171.095 193.990,180.077 188.104 C 183.004 186.187,183.012 186.228,178.005 178.278 C 173.071 170.445,173.135 170.479,170.439 174.266 M58.503 218.092 C 51.120 220.821,50.521 223.237,50.948 248.546 C 51.336 271.471,52.715 273.486,67.971 273.413 C 80.302 273.354,83.447 270.283,83.447 258.302 L 83.447 250.340 77.551 250.340 L 71.655 250.340 71.643 256.009 C 71.624 264.567,71.068 265.911,67.682 265.582 L 64.853 265.306 64.609 245.704 C 64.348 224.775,64.670 223.136,68.793 224.445 C 70.913 225.118,71.626 227.457,71.643 233.787 L 71.655 238.549 77.551 238.549 L 83.447 238.549 83.447 231.789 C 83.447 223.845,82.492 221.307,78.649 219.037 C 74.846 216.791,63.468 216.257,58.503 218.092 M97.959 217.311 C 86.829 221.391,87.075 220.679,87.075 248.893 L 87.075 272.109 93.878 272.109 L 100.680 272.109 100.680 261.678 L 100.680 251.247 103.855 251.247 L 107.029 251.247 107.029 261.678 L 107.029 272.109 113.832 272.109 L 120.635 272.109 120.635 248.935 C 120.635 222.928,120.406 221.798,114.584 219.035 C 111.223 217.440,100.610 216.340,97.959 217.311 M246.341 218.069 C 238.840 220.857,239.036 220.094,238.734 247.643 L 238.465 272.109 245.310 272.109 L 252.154 272.109 252.154 248.587 C 252.154 225.678,252.203 225.050,254.012 224.476 C 258.258 223.128,258.503 224.474,258.503 249.091 L 258.503 272.109 265.306 272.109 L 272.109 272.109 272.109 249.404 C 272.109 223.959,271.685 221.651,266.511 218.955 C 262.430 216.827,251.029 216.326,246.341 218.069 M284.354 218.143 C 276.661 220.865,276.644 220.932,276.644 248.123 L 276.644 272.109 282.993 272.109 L 289.342 272.109 289.342 261.678 L 289.342 251.247 292.971 251.247 L 296.599 251.247 296.599 261.678 L 296.599 272.109 302.948 272.109 L 309.297 272.109 309.297 248.003 L 309.297 223.897 306.731 221.331 C 302.312 216.912,291.990 215.441,284.354 218.143 M16.327 245.351 L 16.327 272.109 23.129 272.109 L 29.932 272.109 29.932 245.351 L 29.932 218.594 23.129 218.594 L 16.327 218.594 16.327 245.351 M125.170 245.351 L 125.170 272.109 131.973 272.109 L 138.776 272.109 138.776 259.410 L 138.776 246.712 146.086 246.712 L 153.397 246.712 153.116 243.311 L 152.834 239.909 145.805 239.644 L 138.776 239.379 138.776 232.615 L 138.776 225.850 146.032 225.850 L 153.288 225.850 153.288 222.222 L 153.288 218.594 139.229 218.594 L 125.170 218.594 125.170 245.351 M156.009 245.351 L 156.009 272.109 162.812 272.109 L 169.615 272.109 169.615 259.410 L 169.615 246.712 176.871 246.712 L 184.127 246.712 184.127 243.084 L 184.127 239.456 176.871 239.456 L 169.615 239.456 169.615 232.653 L 169.615 225.850 176.871 225.850 L 184.127 225.850 184.127 222.222 L 184.127 218.594 170.068 218.594 L 156.009 218.594 156.009 245.351 M187.755 245.351 L 187.755 272.109 201.814 272.109 L 215.873 272.109 215.873 268.027 L 215.873 263.946 208.617 263.946 L 201.361 263.946 201.361 255.329 L 201.361 246.712 208.617 246.712 L 215.873 246.712 215.873 242.630 L 215.873 238.549 208.617 238.549 L 201.361 238.549 201.361 232.200 L 201.361 225.850 208.617 225.850 L 215.873 225.850 215.873 222.222 L 215.873 218.594 201.814 218.594 L 187.755 218.594 187.755 245.351 M220.408 245.351 L 220.408 272.109 227.211 272.109 L 234.014 272.109 234.014 245.351 L 234.014 218.594 227.211 218.594 L 220.408 218.594 220.408 245.351 M311.111 222.222 L 311.111 225.850 316.100 225.850 L 321.088 225.850 321.088 248.980 L 321.088 272.109 327.891 272.109 L 334.694 272.109 334.694 248.980 L 334.694 225.850 339.683 225.850 L 344.671 225.850 344.671 222.222 L 344.671 218.594 327.891 218.594 L 311.111 218.594 311.111 222.222 M346.485 245.351 L 346.485 272.109 360.998 272.109 L 375.510 272.109 375.510 268.027 L 375.510 263.946 367.800 263.946 L 360.091 263.946 360.091 255.329 L 360.091 246.712 367.800 246.712 L 375.510 246.712 375.510 242.630 L 375.510 238.549 367.800 238.549 L 360.091 238.549 360.091 232.200 L 360.091 225.850 367.800 225.850 L 375.510 225.850 375.510 222.222 L 375.510 218.594 360.998 218.594 L 346.485 218.594 346.485 245.351 M105.595 224.587 C 106.769 225.038,107.029 226.765,107.029 234.111 L 107.029 243.084 103.855 243.084 L 100.680 243.084 100.680 234.649 C 100.680 224.955,101.607 223.057,105.595 224.587 M295.510 225.125 C 296.201 225.815,296.599 229.297,296.599 234.649 L 296.599 243.084 292.971 243.084 L 289.342 243.084 289.342 235.315 C 289.342 225.178,291.688 221.303,295.510 225.125 M23.349 279.568 C 18.237 282.531,16.327 287.242,16.327 296.885 C 16.327 303.282,16.071 304.762,14.966 304.762 C 13.922 304.762,13.605 305.921,13.605 309.751 L 13.605 314.739 24.036 314.739 L 34.467 314.739 34.467 323.810 L 34.467 332.880 39.456 332.880 L 44.444 332.880 44.444 310.554 C 44.444 289.282,44.351 288.063,42.463 284.704 C 38.764 278.122,29.937 275.750,23.349 279.568 M47.166 282.540 C 47.166 286.369,47.482 287.528,48.526 287.528 C 49.699 287.528,49.887 290.653,49.887 310.204 L 49.887 332.880 54.875 332.880 L 59.864 332.880 59.935 321.315 L 60.007 309.751 63.862 321.088 L 67.718 332.426 72.861 332.698 L 78.005 332.970 78.005 305.261 L 78.005 277.551 73.016 277.551 L 68.027 277.551 67.950 290.023 L 67.873 302.494 63.666 290.023 L 59.459 277.551 53.312 277.551 L 47.166 277.551 47.166 282.540 M81.633 305.215 L 81.633 332.880 90.930 332.876 C 108.160 332.870,109.742 330.536,109.747 305.123 C 109.752 280.114,107.961 277.551,90.490 277.551 L 81.633 277.551 81.633 305.215 M137.868 291.156 C 137.868 299.622,137.526 304.762,136.961 304.762 C 136.463 304.762,136.054 307.007,136.054 309.751 L 136.054 314.739 146.485 314.739 L 156.916 314.739 156.916 323.810 L 156.916 332.880 161.905 332.880 L 166.893 332.880 166.893 305.215 L 166.893 277.551 161.905 277.551 L 156.916 277.551 156.916 291.156 L 156.916 304.762 152.381 304.762 L 147.846 304.762 147.846 291.156 L 147.846 277.551 142.857 277.551 L 137.868 277.551 137.868 291.156 M177.796 279.088 C 170.888 282.672,170.390 284.580,170.700 306.257 C 170.973 325.338,170.992 325.500,173.243 327.906 C 182.144 337.425,196.586 332.846,198.192 319.996 C 199.476 309.720,198.364 288.284,196.372 284.902 C 192.479 278.294,184.276 275.726,177.796 279.088 M202.268 291.156 C 202.268 299.622,201.925 304.762,201.361 304.762 C 200.862 304.762,200.454 307.007,200.454 309.751 L 200.454 314.739 210.006 314.739 C 226.809 314.739,230.839 311.142,230.839 296.145 C 230.839 281.401,226.714 277.551,210.913 277.551 L 202.268 277.551 202.268 291.156 M234.921 291.156 C 234.921 302.646,234.709 304.762,233.560 304.762 C 232.516 304.762,232.200 305.921,232.200 309.751 L 232.200 314.739 245.351 314.739 L 258.503 314.739 258.503 309.751 L 258.503 304.762 251.701 304.762 L 244.898 304.762 244.898 296.145 L 244.898 287.528 252.154 287.528 L 259.410 287.528 259.410 282.540 L 259.410 277.551 247.166 277.551 L 234.921 277.551 234.921 291.156 M287.528 291.156 C 287.528 302.646,287.317 304.762,286.168 304.762 C 285.123 304.762,284.807 305.921,284.807 309.751 L 284.807 314.739 297.959 314.739 L 311.111 314.739 311.111 309.751 L 311.111 304.762 303.855 304.762 L 296.599 304.762 296.599 296.145 L 296.599 287.528 303.855 287.528 L 311.111 287.528 311.111 282.540 L 311.111 277.551 299.320 277.551 L 287.528 277.551 287.528 291.156 M322.380 279.383 C 315.549 282.764,314.739 285.516,314.739 305.353 C 314.739 320.277,314.955 322.883,316.419 325.638 C 321.632 335.448,336.333 335.429,341.268 325.606 C 343.862 320.444,343.610 289.569,340.936 284.811 C 337.189 278.145,329.453 275.881,322.380 279.383 M347.392 291.156 C 347.392 302.646,347.181 304.762,346.032 304.762 C 344.987 304.762,344.671 305.921,344.671 309.751 L 344.671 314.739 353.690 314.739 C 364.936 314.739,365.533 315.298,365.533 325.825 L 365.533 332.880 370.522 332.880 L 375.510 332.880 375.510 325.188 C 375.510 320.237,374.990 316.198,374.051 313.851 C 372.710 310.500,372.710 309.908,374.051 306.558 C 380.647 290.072,372.903 277.551,356.112 277.551 L 347.392 277.551 347.392 291.156 M33.042 288.954 C 34.098 290.010,34.467 292.242,34.467 297.570 L 34.467 304.762 30.385 304.762 L 26.304 304.762 26.304 297.570 C 26.304 290.263,27.415 287.528,30.385 287.528 C 31.063 287.528,32.258 288.170,33.042 288.954 M98.685 288.617 C 99.447 289.379,99.773 294.390,99.773 305.345 C 99.773 322.450,99.324 323.810,93.676 323.810 L 91.610 323.810 91.610 305.669 L 91.610 287.528 94.603 287.528 C 96.249 287.528,98.086 288.018,98.685 288.617 M187.250 289.544 C 188.373 291.147,188.662 294.295,188.662 304.905 C 188.662 320.563,188.073 322.902,184.127 322.902 C 180.181 322.902,179.592 320.563,179.592 304.905 C 179.592 290.704,180.421 287.528,184.127 287.528 C 185.068 287.528,186.474 288.435,187.250 289.544 M219.903 289.544 C 223.729 295.006,220.822 304.762,215.368 304.762 L 212.245 304.762 212.245 296.145 L 212.245 287.528 215.368 287.528 C 217.567 287.528,218.909 288.125,219.903 289.544 M331.454 288.954 C 332.637 290.136,332.880 292.968,332.880 305.552 C 332.880 321.473,332.544 322.902,328.798 322.902 C 325.063 322.902,324.717 321.457,324.717 305.881 C 324.717 288.141,326.404 283.903,331.454 288.954 M364.108 288.954 C 365.861 290.707,366.119 301.999,364.444 303.673 C 363.846 304.272,362.009 304.762,360.363 304.762 L 357.370 304.762 357.370 296.145 L 357.370 287.528 360.026 287.528 C 361.487 287.528,363.324 288.170,364.108 288.954 M16.327 324.263 L 16.327 332.880 21.315 332.880 L 26.304 332.880 26.304 324.263 L 26.304 315.646 21.315 315.646 L 16.327 315.646 16.327 324.263 M137.868 324.263 L 137.868 332.880 142.857 332.880 L 147.846 332.880 147.846 324.263 L 147.846 315.646 142.857 315.646 L 137.868 315.646 137.868 324.263 M202.268 324.263 L 202.268 332.880 207.256 332.880 L 212.245 332.880 212.245 324.263 L 212.245 315.646 207.256 315.646 L 202.268 315.646 202.268 324.263 M234.921 324.263 L 234.921 332.880 247.166 332.880 L 259.410 332.880 259.410 327.891 L 259.410 322.902 252.154 322.902 L 244.898 322.902 244.898 319.274 L 244.898 315.646 239.909 315.646 L 234.921 315.646 234.921 324.263 M287.528 324.263 L 287.528 332.880 292.063 332.880 L 296.599 332.880 296.599 324.263 L 296.599 315.646 292.063 315.646 L 287.528 315.646 287.528 324.263 M347.392 324.263 L 347.392 332.880 352.381 332.880 L 357.370 332.880 357.370 324.263 L 357.370 315.646 352.381 315.646 L 347.392 315.646 347.392 324.263 M349.660 344.633 C 327.660 351.510,326.967 351.798,326.411 354.319 C 325.538 358.277,325.520 373.696,326.389 373.696 C 326.809 373.696,329.526 372.880,332.426 371.882 C 335.326 370.884,338.043 370.068,338.464 370.068 C 338.885 370.068,339.229 379.252,339.229 390.476 C 339.229 401.937,339.586 410.884,340.044 410.884 C 341.228 410.884,356.784 405.263,357.642 404.525 C 358.041 404.182,358.950 396.390,359.662 387.211 C 360.375 378.032,361.193 368.435,361.481 365.884 L 362.004 361.247 368.204 359.137 L 374.404 357.026 374.957 352.990 C 376.125 344.470,375.654 337.409,373.923 337.480 C 373.050 337.516,362.132 340.735,349.660 344.633 M13.605 349.866 L 13.605 360.648 19.955 362.295 L 26.304 363.942 26.304 385.033 L 26.304 406.125 35.943 408.541 C 41.245 409.869,45.714 410.824,45.875 410.663 C 46.037 410.502,46.873 401.404,47.735 390.446 C 49.587 366.884,48.433 369.639,55.649 371.562 C 62.924 373.500,62.312 374.248,62.709 362.933 L 63.039 353.530 40.816 346.856 C 28.594 343.185,17.472 339.935,16.100 339.633 L 13.605 339.085 13.605 349.866 M306.618 355.190 C 275.353 363.594,268.159 405.460,299.205 398.332 C 303.790 397.280,305.872 397.795,305.487 399.887 C 304.824 403.487,292.839 406.023,284.688 404.288 L 281.395 403.586 280.796 409.730 C 280.466 413.109,279.968 417.573,279.689 419.651 L 279.182 423.429 284.250 424.063 C 307.159 426.925,325.144 414.170,326.274 394.261 C 326.989 381.677,321.817 377.471,308.942 380.161 C 301.066 381.807,298.091 381.092,300.721 378.187 C 302.619 376.089,308.981 373.992,315.885 373.187 C 322.190 372.451,321.638 373.348,322.425 362.585 L 323.072 353.741 317.318 353.801 C 314.154 353.834,309.339 354.459,306.618 355.190 M65.861 365.829 C 65.573 371.403,65.091 385.556,64.789 397.279 L 64.240 418.594 74.070 421.108 C 79.477 422.491,84.206 423.614,84.580 423.603 C 84.955 423.592,85.261 419.289,85.261 414.042 L 85.261 404.501 87.755 405.119 C 95.527 407.044,94.756 405.746,95.039 417.376 L 95.293 427.822 105.470 429.341 C 111.067 430.177,116.156 430.855,116.780 430.850 C 118.107 430.837,118.239 420.257,117.317 387.647 L 116.724 366.677 107.591 364.638 C 102.568 363.516,98.003 362.424,97.447 362.210 C 96.738 361.938,96.255 366.770,95.836 378.341 C 95.148 397.341,95.658 395.698,90.691 394.904 L 86.809 394.283 87.427 378.285 L 88.045 362.287 81.437 360.302 C 77.803 359.210,72.929 357.727,70.607 357.005 L 66.383 355.694 65.861 365.829 M257.363 367.286 C 247.008 369.156,238.388 370.853,238.209 371.057 C 236.644 372.835,236.767 435.374,238.335 435.374 C 239.776 435.374,267.321 430.076,273.609 428.589 C 275.485 428.145,277.994 410.118,276.401 408.525 C 276.145 408.269,271.900 408.819,266.969 409.748 L 258.002 411.437 258.342 408.525 C 258.668 405.735,258.916 405.570,264.324 404.549 C 271.907 403.118,271.801 403.243,272.304 395.222 L 272.745 388.177 269.479 388.742 C 267.683 389.052,264.659 389.633,262.760 390.033 C 259.404 390.740,259.314 390.692,259.585 388.351 C 259.845 386.108,260.487 385.780,268.861 383.622 C 279.271 380.938,279.208 381.015,279.301 370.748 C 279.357 364.604,279.165 363.729,277.778 363.802 C 276.905 363.848,267.718 365.416,257.363 367.286 M122.020 399.148 C 121.652 416.639,121.608 431.208,121.924 431.523 C 122.488 432.088,159.741 436.510,160.130 436.059 C 160.239 435.932,160.617 431.492,160.969 426.193 L 161.610 416.558 158.583 416.029 C 156.918 415.737,152.574 415.222,148.929 414.884 C 143.676 414.396,142.408 413.996,142.807 412.956 C 143.084 412.234,143.311 411.028,143.311 410.275 C 143.311 409.154,144.495 408.963,149.887 409.215 L 156.463 409.522 156.916 402.538 C 157.416 394.839,157.250 394.615,151.020 394.558 C 146.028 394.512,144.218 393.611,144.218 391.169 L 144.218 388.899 153.612 389.539 L 163.007 390.180 163.590 387.267 C 165.018 380.124,164.306 372.853,162.132 372.376 C 160.258 371.964,124.530 367.342,123.250 367.345 C 122.942 367.346,122.388 381.658,122.020 399.148 M196.372 373.729 C 193.878 374.183,190.000 375.093,187.755 375.752 L 183.673 376.951 183.673 406.298 L 183.673 435.645 187.302 437.032 C 197.224 440.824,221.144 438.432,228.422 432.920 C 237.589 425.977,237.288 411.694,227.871 406.714 L 224.186 404.765 226.926 402.740 C 233.098 398.177,234.577 388.260,230.159 381.062 C 226.107 374.459,210.719 371.119,196.372 373.729 M211.306 394.498 C 213.094 397.839,211.546 400.467,207.029 401.754 L 204.082 402.594 204.082 397.669 L 204.082 392.744 207.224 392.744 C 209.403 392.744,210.655 393.282,211.306 394.498 M210.586 413.293 C 212.907 415.393,212.653 417.688,209.855 419.889 C 205.549 423.276,204.082 422.486,204.082 416.780 C 204.082 411.273,206.765 409.834,210.586 413.293 " stroke="none" fill="#000000" fill-rule="evenodd"></path></g></svg>